PathFileType	4	(X/Y/Z)	18_2_rein_64_p1_0-1154_filt_butterworth.trc
DataRate	CameraRate	NumFrames	NumMarkers	Units	OrigDataRate	OrigDataStartFrame	OrigNumFrames
60.0	60.0	5	27	m	60.0	0	1154
Frame#	Time	RHip			RKnee			RAnkle			RBigToe			RSmallToe			RHeel			LHip			LKnee			LAnkle			LBigToe			LSmallToe			LHeel			Neck			Head			Nose			RShoulder			RElbow			RWrist			RThumb			RIndex			RPinky			LShoulder			LElbow			LWrist			LThumb			LIndex			LPinky			
		X1	Y1	Z1	X2	Y2	Z2	X3	Y3	Z3	X4	Y4	Z4	X5	Y5	Z5	X6	Y6	Z6	X7	Y7	Z7	X8	Y8	Z8	X9	Y9	Z9	X10	Y10	Z10	X11	Y11	Z11	X12	Y12	Z12	X13	Y13	Z13	X14	Y14	Z14	X15	Y15	Z15	X16	Y16	Z16	X17	Y17	Z17	X18	Y18	Z18	X19	Y19	Z19	X20	Y20	Z20	X21	Y21	Z21	X22	Y22	Z22	X23	Y23	Z23	X24	Y24	Z24	X25	Y25	Z25	X26	Y26	Z26	X27	Y27	Z27	
0	0.0	0.2829568631398176	0.38810393745855226	1.1608139114463927	0.2551735836417604	0.486533171590491	1.5860666300916024	0.23006043186936811	0.6362072801489391	2.0282187823575106	0.21183599480337503	0.38586310582175326	2.0370051314449165	0.2636554157679363	0.4472418501443214	2.054893584380414	0.22204935208834373	0.6965256564276596	2.0768257319974732	0.09254356714856066	0.3507164894908962	1.153374505894263	0.09713168602842959	0.4166034989069102	1.5621723063856119	0.05560704298327635	0.5806507968884765	2.0215989064721276	0.05938423865568047	0.3769626774074571	2.0348343495401373	0.011139496141011168	0.43649563674738173	2.0414732669358595	0.07153870738446338	0.6599998741044342	2.0831369143291045	0.19900821517734044	0.2868721705094747	0.5963044106799735	0.20000000093942635	0.23418179303482894	0.3634680879417967	0.1989394385746277	0.2229783214405662	0.49985486031190424	0.3434092443952441	0.34805042684719234	0.7041485643227404	0.35720468667288935	0.2195992592741286	0.9164504325462755	0.25276205882938096	0.0230556687852129	0.9784799554280894	0.18080864012782552	-0.05470453098314575	0.9583300441522066	0.17412942331671913	-0.07773146990455813	0.9890978115719045	0.1866527750254804	-0.0520532582167701	1.0336618899874006	0.04297277348768083	0.3500568905156599	0.6970446413593191	0.019528873263984163	0.2114204679591249	0.8979507323509569	0.10514584403904567	-0.04555388646893039	0.9642734079585337	0.16796566154261683	-0.11038035825091083	0.9536746972014309	0.17689983430169182	-0.11132004957692017	0.9772811668060549	0.17505503222185503	-0.07292234572879194	1.0342028949417754
1	0.0166666666666666	0.28533710384879885	0.38838959679094276	1.1639435675919825	0.2576185190794636	0.494668839255893	1.5885551660082058	0.22973379097427823	0.6360534924031719	2.0311088019500616	0.21222445706516735	0.3789271185990967	2.033638662038321	0.2638281509130257	0.43921008762082503	2.0509427012453965	0.2182827119730565	0.6967102432389984	2.082127144100598	0.09672807116393001	0.3469039498982708	1.1501657094660613	0.09717915103344082	0.4167071404854888	1.5623063324478266	0.052602546484643756	0.5789482890872705	2.0209584061123183	0.05968298431959244	0.3818274995239993	2.034051647409725	0.01407222259714785	0.42798321063480627	2.0381790235581914	0.07143072974519384	0.6604573794071413	2.083270949087343	0.1990165667679301	0.2868975245905335	0.5963075280723877	0.20005696838670264	0.2340712444722477	0.36342429630780093	0.19705711936757553	0.21616489105041634	0.5000390854172347	0.3433984583899761	0.34796627626714566	0.7041445994189377	0.356991066611816	0.21914714070188057	0.9154825713857531	0.2520022810072358	0.022508501929169745	0.9774236797354031	0.1807781531583726	-0.055067112368112854	0.9583974229735575	0.1743041305858895	-0.07762213054860845	0.9902632998977923	0.1855850571985216	-0.05606822508951857	1.0331201145304874	0.04401371486613513	0.3503208051925445	0.6970422659597894	0.019152624896216212	0.20865755697014476	0.895503436988947	0.10571660794488272	-0.04330851318693297	0.9646097040291077	0.16771479551886673	-0.11003645312445129	0.955822359724469	0.1774038547574572	-0.1088533926577251	0.9791546648680757	0.1738227694011927	-0.06891598158097116	1.033107246830486
2	0.0333333333333333	0.2867697665807676	0.39181814572732515	1.1660012763854375	0.25908178483983246	0.4995775767011527	1.5900425239822311	0.22944315707256618	0.6363981680754603	2.032569917949032	0.21234661046240277	0.37845237562759604	2.0334527581218755	0.26469844821348887	0.43600195795836055	2.0493766632014223	0.2161052559235419	0.6969696209538515	2.084177920496119	0.09960182808641141	0.34617344964424984	1.1485491025766237	0.09718850625630814	0.4167273205311144	1.5622789756737168	0.050900725949949974	0.5779707727513642	2.0205730425836217	0.059784584889612094	0.3840511365770404	2.033234995956083	0.015987335467215893	0.4226736687487713	2.0356884530609007	0.07136688522382408	0.6607777403007952	2.0833708871155094	0.19902950830186647	0.2868934152427495	0.5963053811087241	0.20009844999180917	0.23399394523805808	0.36337803403668717	0.19593079872408992	0.2120481986033501	0.5001669606440886	0.34339406301740766	0.34787420435687083	0.7041447534193253	0.35733761107282325	0.2191003898139276	0.9154242910868687	0.25171531007812337	0.022100507390678786	0.9764232789676922	0.18078024873405754	-0.05528866031227235	0.958427672470404	0.17441300731132317	-0.07771678521903078	0.9907985666028444	0.18468176375495507	-0.06021051413697059	1.03252432077308	0.04404672497095181	0.35035231294108893	0.6970440760625037	0.01779144349846883	0.20826100760798166	0.8941815187936444	0.1057568881762118	-0.04303811451889211	0.9646582903278624	0.16756567614618706	-0.10981252486851437	0.9571109255792833	0.17758017807893256	-0.10767430517006052	0.9807416726922294	0.172722492172735	-0.06537373549942323	1.0327498221617055
3	0.05	0.28717601370336293	0.39639643702796923	1.1668017046403478	0.2594608636319644	0.5009866415595624	1.5904661263502198	0.22918236975323703	0.637107129845211	2.0330098988596728	0.21225354120100176	0.382563853954574	2.035491987096716	0.2667151787243241	0.4357895072091538	2.0492699698783037	0.21554351479928488	0.6971907329623723	2.0836423430579396	0.10081342217119	0.3477011847164924	1.1484535986632312	0.09711991351386043	0.41647140998989096	1.5617331881981724	0.05091263678644112	0.5779912622667143	2.0205490143624796	0.05958706941331819	0.3830137477233081	2.0321489352613185	0.016722932399542825	0.4208918295286773	2.034358031797896	0.07135543464268433	0.6609085624772028	2.08342458583671	0.19904240824309472	0.2868674379980587	0.596294683699629	0.20012028590012548	0.23395051795344274	0.3633394969784654	0.19562328156385556	0.210841347529234	0.5002510420812503	0.34338949578293104	0.3477899451696957	0.7041437953341119	0.3584182535371345	0.21934011184331004	0.9159829568287458	0.2517703169479437	0.021917215810187674	0.9757293802775022	0.18079926162798854	-0.05535726570738813	0.9584360223577353	0.17443099434558654	-0.07809224857940991	0.990509596772903	0.18441283473711312	-0.06364820569121928	1.0319782182301434	0.0433762990344439	0.35022604743146163	0.6970480904731805	0.01623641931636459	0.20952561723966834	0.8939699702893369	0.10544583809991262	-0.04414573860448763	0.9645158299234123	0.16752456360274304	-0.10974365632527978	0.9574603772405954	0.1773145385305878	-0.10827641292425726	0.9815258034978787	0.1720204922843398	-0.0630455560097409	1.032994676410682
4	0.0666666666666666	0.28710232216162157	0.3990579173370376	1.1668753748031306	0.2592997567815983	0.5006806571586458	1.5904041010608903	0.2289894912342054	0.6376981851080178	2.0332507100904795	0.21213637739942978	0.3861805933077243	2.037224232431536	0.26943415115154035	0.43526209206491234	2.0489648628535195	0.21561343546353362	0.6972766784243444	2.083125278416834	0.10094254138703904	0.3491528172590984	1.1488723903453986	0.0969655072138281	0.4157720287708374	1.560373034645138	0.05225001018481924	0.5788411735741421	2.02085220832401	0.05927239653528669	0.3807168457816106	2.031072770505304	0.01679625176812038	0.42092832265632485	2.0338890335011826	0.07137594511817144	0.6609094314588762	2.0834414969895074	0.19904952505156387	0.2868441817720877	0.5962799688008225	0.2001177536604515	0.23390681262724775	0.3633242852443145	0.19571483071422918	0.2110654482580085	0.50031833894961	0.3433805572336404	0.3477271983159493	0.7041324871706176	0.35981335114515406	0.21955285947994874	0.916443920475903	0.2514398109896391	0.021889378989616418	0.975465513850433	0.18080014450314771	-0.05531962151850113	0.9584580538270866	0.1744067555526837	-0.07852270013904553	0.9898935852712765	0.1850155029647407	-0.06497560181515827	1.031719341704807	0.04290350031199768	0.35015076905681725	0.6970491950905569	0.015750973800827052	0.21065324364952495	0.8941841432770569	0.10520756914098844	-0.04510409995713746	0.9643846182259606	0.16753510662387877	-0.10976978356524476	0.9573470506588768	0.17686670090565332	-0.10968617462920793	0.9814498973017303	0.17180584947525837	-0.062128793195627204	1.033267704445103
